# xmcd
#
# Track frame offsets:
#	150
#	13067
#	22455
#	35434
#	44626
#	56598
#	69995
#	84048
#	94404
#	105307
#	123469
#	134406
#	152240
#	161963
#	174657
#	186297
#	204882
#	218381
#
# Disc length: 3142 seconds
# Revision: 0
# Processed by: cddbd v1.5.2PL0 Copyright (c) Steve Scherf et al.
# Submitted via: dBpowerAMP V12.0
#
DISCID=fa0c4412
DTITLE=Billy Hurt, Jr. - Fiddlin' Billy Hurt
DYEAR=2014
DGENRE=Country
TTITLE0=Poca River Blues
TTITLE1=Old Jake Gillie
TTITLE2=Dance All Night with a Bottle in Your Hand
TTITLE3=Chinky Pin
TTITLE4=Richmond Polka
TTITLE5=Red Bird
TTITLE6=Lynchburg Town
TTITLE7=Grassy Fiddle Blues
TTITLE8=Salt River
TTITLE9=I Can't Give You Anything But Love
TTITLE10=Ragtime Annie
TTITLE11=Richard's Rag
TTITLE12=Sally Ann Johnson
TTITLE13=Smith's Reel
TTITLE14=The Pete and Fay Hatfield Old Time Key of G Rag
TTITLE15=Oh! Lady Be Good
TTITLE16=Steamboat Bill
TTITLE17=When I Grow Too Old To Dream
EXTD=
EXTT0=
EXTT1=
EXTT2=
EXTT3=
EXTT4=
EXTT5=
EXTT6=
EXTT7=
EXTT8=
EXTT9=
EXTT10=
EXTT11=
EXTT12=
EXTT13=
EXTT14=
EXTT15=
EXTT16=
EXTT17=
PLAYORDER=
